HIERARCHY
ROOT Hips
{
	OFFSET 0.000000 0.000000 0.000000
	CHANNELS 6 Xposition Yposition Zposition Zrotation Yrotation Xrotation 
	JOINT LHipJoint
	{
		OFFSET 0.000000 0.000000 0.000000
		CHANNELS 3 Zrotation Yrotation Xrotation
		JOINT LeftUpLeg
		{
			OFFSET 1.363060 -1.794630 0.839290
			CHANNELS 3 Zrotation Yrotation Xrotation
			JOINT LeftLeg
			{
				OFFSET 2.448110 -6.726130 0.000000
				CHANNELS 3 Zrotation Yrotation Xrotation
				JOINT LeftFoot
				{
					OFFSET 2.562200 -7.039590 0.000000
					CHANNELS 3 Zrotation Yrotation Xrotation
					JOINT LeftToeBase
					{
						OFFSET 0.157640 -0.433110 2.322550
						CHANNELS 3 Zrotation Yrotation Xrotation
						End Site
						{
							OFFSET 0.000000 0.000000 0.000000
						}
					}
				}
			}
		}
	}
	JOINT RHipJoint
	{
		OFFSET 0.000000 0.000000 0.000000
		CHANNELS 3 Zrotation Yrotation Xrotation
		JOINT RightUpLeg
		{
			OFFSET -1.305520 -1.794630 0.839290
			CHANNELS 3 Zrotation Yrotation Xrotation
			JOINT RightLeg
			{
				OFFSET -2.542530 -6.985550 0.000000
				CHANNELS 3 Zrotation Yrotation Xrotation
				JOINT RightFoot
				{
					OFFSET -2.568260 -7.056230 0.000000
					CHANNELS 3 Zrotation Yrotation Xrotation
					JOINT RightToeBase
					{
						OFFSET -0.164730 -0.452590 2.363150
						CHANNELS 3 Zrotation Yrotation Xrotation
						End Site
						{
							OFFSET 0.000000 0.000000 0.000000
						}
					}
				}
			}
		}
	}
}
MOTION
Frames: 28
Frame Time: 0.008333
2.733783 17.046163 0.333357 172.029557 -79.900616 -166.398641 -11.256230 2.229952 0.042065 -4.308916 20.412680 -13.716986 -1.657927 -0.161943 17.552937 2.568996 17.203443 -7.022304 0.161199 -0.000000 -44.462600 9.953983 -2.120488 2.634675 0.825550 -3.002261 -16.744696 1.828729 -0.988067 23.353772 -0.114052 1.742574 -6.392036 -0.016699 -0.000000 -72.705100
2.672719 17.075105 0.348184 173.107915 -78.918399 -167.603636 -11.338325 2.416665 0.148128 -4.230010 21.117617 -12.836273 -1.673707 -0.245126 16.118731 2.563869 17.419073 -6.457272 0.342500 0.000000 -44.379500 9.890419 -2.229485 2.879730 0.788355 -2.697403 -16.117941 1.870514 -0.851502 21.993824 -0.001769 2.287057 -5.680368 0.003300 0.000000 -73.012300
2.609385 17.106256 0.364228 174.138652 -77.972005 -168.737380 -11.427811 2.608037 0.271690 -4.131404 21.805298 -11.949709 -1.686817 -0.332718 14.579844 2.553091 17.622123 -5.809353 0.555200 -0.000000 -44.308700 9.817986 -2.348113 3.130523 0.785274 -2.410361 -15.436510 1.920459 -0.702626 20.471300 0.109783 2.806920 -4.873398 0.033600 -0.000000 -73.337000
2.544498 17.138755 0.381189 175.130731 -77.066816 -169.809649 -11.524935 2.802635 0.408145 -4.012441 22.483767 -11.070352 -1.698809 -0.422233 12.963134 2.534584 17.797354 -5.086561 0.795700 0.000000 -44.255600 9.736900 -2.474805 3.385841 0.815053 -2.135249 -14.705227 1.978009 -0.543200 18.805618 0.218586 3.288420 -3.978855 0.074500 0.000000 -73.670901
2.478920 17.171634 0.398674 176.081260 -76.208058 -170.820727 -11.629333 2.998990 0.551199 -3.873479 23.168637 -10.212400 -1.712361 -0.511138 11.299294 2.505355 17.922646 -4.299905 1.057400 0.000000 -44.229400 9.648064 -2.607546 3.644779 0.874154 -1.865141 -13.931153 2.042397 -0.375359 17.022064 0.322645 3.718524 -3.010089 0.124800 -0.000000 -74.002200
2.413541 17.203887 0.416340 176.992085 -75.399856 -171.775503 -11.740794 3.195522 0.692504 -3.712512 23.892462 -9.400103 -1.732496 -0.596330 9.633896 2.460098 17.957953 -3.468078 1.327400 0.000000 -44.231900 9.552164 -2.744594 3.907888 0.960016 -1.590679 -13.123645 2.112697 -0.201143 15.150213 0.419787 4.082647 -1.984349 0.181800 0.000000 -74.313200
2.349005 17.234611 0.433507 177.798925 -74.646727 -172.614787 -11.855508 3.392940 0.829288 -3.548849 24.637852 -8.615243 -1.759124 -0.678254 7.958951 2.400986 17.917071 -2.585896 1.604800 0.000001 -44.307100 9.454822 -2.881848 4.169838 1.046155 -1.322444 -12.294723 2.186608 -0.024480 13.231216 0.510362 4.388668 -0.925366 0.243400 0.000001 -74.604500
2.286205 17.262891 0.449994 178.530597 -73.951381 -173.371635 -11.974394 3.589000 0.949582 -3.371709 25.473174 -7.906541 -1.802140 -0.752401 6.354583 2.318175 17.721422 -1.692038 1.861500 0.000000 -44.432300 9.355058 -3.018121 4.433375 1.138263 -1.049147 -11.457937 2.263340 0.153511 11.298561 0.592275 4.623089 0.142119 0.304500 0.000000 -74.850200
2.225815 17.288013 0.465344 179.145742 -73.317389 -174.011141 -12.094285 3.783961 1.050783 -3.194721 26.392299 -7.266892 -1.862994 -0.818909 4.828172 2.213196 17.372722 -0.792152 2.088399 0.000000 -44.641200 9.257292 -3.149789 4.693638 1.216556 -0.784141 -10.627503 2.340581 0.329680 9.393943 0.666385 4.799112 1.190273 0.362700 0.000000 -75.049600
2.168444 17.309390 0.479305 179.626029 -72.747238 -174.521080 -12.212826 3.977364 1.129754 -3.025083 27.399018 -6.700613 -1.944153 -0.877128 3.404818 2.086587 16.860295 0.095574 2.271500 0.000000 -44.931400 9.164584 -3.273895 4.946278 1.268963 -0.540683 -9.817236 2.416363 0.501596 7.555588 0.733576 4.930934 2.191169 0.416100 -0.000000 -75.201000
2.114409 17.326711 0.491788 179.966865 -72.244026 -174.899635 -12.327780 4.168670 1.186592 -2.868778 28.481948 -6.207226 -2.045603 -0.927109 2.100714 1.941680 16.190355 0.954753 2.401100 -0.000001 -45.307800 9.079395 -3.388128 5.186886 1.287047 -0.332072 -9.038669 2.488911 0.667320 5.815555 0.794790 5.033427 3.119936 0.464400 0.000000 -75.307500
2.064213 17.339779 0.502815 -179.835635 -71.810509 -175.148620 -12.436403 4.356798 1.224939 -2.732036 29.604150 -5.775089 -2.163254 -0.969644 0.917124 1.785572 15.395808 1.772400 2.476200 -0.000000 -45.760800 9.004107 -3.490069 5.409791 1.265159 -0.171726 -8.299919 2.556463 0.824879 4.199139 0.851043 5.122181 3.957163 0.508200 -0.000000 -75.376399
2.018016 17.348679 0.512538 -179.770120 -71.449245 -175.279720 -12.536363 4.540341 1.250241 -2.618689 30.719695 -5.391312 -2.290941 -1.005838 -0.149423 1.626590 14.521367 2.534641 2.500800 0.000001 -46.270100 8.940120 -3.578250 5.610381 1.202571 -0.067514 -7.604428 2.617675 0.973038 2.721217 0.902773 5.206675 4.689368 0.548300 0.000000 -75.416200
1.975935 17.353588 0.521272 -179.805863 -71.162959 -175.325479 -12.626985 4.716961 1.260397 -2.519144 31.838691 -5.071823 -2.429068 -1.034358 -1.059165 1.465181 13.553912 3.208982 2.465100 0.000001 -46.787900 8.886816 -3.653081 5.788202 1.107201 -0.017702 -6.949107 2.672013 1.111701 1.385705 0.949620 5.285187 5.312006 0.583299 0.000000 -75.433001
1.937914 17.354922 0.529376 -179.925718 -70.954612 -175.299402 -12.705607 4.885334 1.270244 -2.441743 32.852277 -4.771266 -2.561497 -1.058919 -1.875147 1.316871 12.610571 3.811034 2.401500 0.000000 -47.330100 8.845218 -3.713400 5.937852 0.982656 -0.023069 -6.330930 2.718512 1.239667 0.191793 0.991285 5.358191 5.826701 0.613400 -0.000001 -75.434500
1.904080 17.353121 0.537219 179.897554 -70.827000 -175.234253 -12.772072 5.043100 1.275389 -2.373225 33.783273 -4.504640 -2.689394 -1.077787 -2.558641 1.179272 11.670588 4.310992 2.303200 -0.000000 -47.832600 8.814393 -3.760517 6.059356 0.838914 -0.080336 -5.738771 2.757083 1.356988 -0.867984 1.027287 5.419697 6.241215 0.636900 -0.000000 -75.424500
1.874260 17.348820 0.545213 179.682374 -70.782898 -175.145644 -12.824666 5.189578 1.288996 -2.318791 34.534207 -4.225110 -2.797512 -1.094331 -3.177010 1.064237 10.843889 4.730666 2.204301 0.000000 -48.295800 8.794939 -3.794201 6.147981 0.681776 -0.188527 -5.163355 2.787184 1.462649 -1.803544 1.057116 5.465553 6.567699 0.653500 0.000000 -75.407000
1.848174 17.342624 0.553731 179.461942 -70.823899 -175.068826 -12.864768 5.323345 1.303723 -2.260536 35.158315 -3.956398 -2.891277 -1.106279 -3.691044 0.964585 10.081042 5.053767 2.094700 -0.000000 -48.697800 8.784914 -3.817242 6.206667 0.524143 -0.341456 -4.592747 2.809555 1.557318 -2.629359 1.080138 5.483925 6.823611 0.660900 0.000000 -75.379700
1.825592 17.335195 0.563128 179.247859 -70.950860 -175.014799 -12.891603 5.444774 1.329241 -2.202303 35.585458 -3.657863 -2.959534 -1.116267 -4.163344 0.887594 9.464522 5.308705 2.001800 -0.000000 -49.040700 8.784727 -3.829980 6.231937 0.370700 -0.539478 -4.017755 2.823973 1.640132 -3.357705 1.096102 5.470649 7.025958 0.658800 -0.000001 -75.343500
1.806296 17.327166 0.573642 179.058085 -71.162551 -175.006328 -12.906798 5.553737 1.357450 -2.129948 35.877287 -3.351078 -3.009565 -1.122070 -4.563039 0.825200 8.935831 5.492063 1.914199 0.000000 -49.321100 8.792794 -3.834998 6.227061 0.230097 -0.779475 -3.429968 2.831199 1.711646 -4.001695 1.104854 5.417231 7.193197 0.645900 -0.000000 -75.294500
1.789843 17.319152 0.585368 178.895542 -71.455528 -175.052481 -12.903566 5.642276 1.391445 -2.045959 36.026141 -3.171131 -3.040830 -1.109225 -4.599155 0.751633 8.503386 5.442561 1.839300 -0.000000 -49.548399 8.811555 -3.821587 6.181997 0.119232 -1.041450 -3.173012 2.807061 1.720385 -3.817253 1.073323 5.325743 6.925071 0.620700 0.000000 -75.226900
1.775771 17.311634 0.598417 178.763770 -71.820921 -175.153410 -12.881156 5.710912 1.430443 -1.952770 36.026250 -3.139474 -3.053231 -1.074035 -4.226265 0.664305 8.177653 5.140974 1.783700 0.000000 -49.734100 8.839310 -3.796259 6.102830 0.030000 -1.339897 -3.049633 2.764745 1.696303 -3.233363 1.022676 5.194608 6.468634 0.584800 -0.000000 -75.145500
1.763679 17.304981 0.612660 178.663774 -72.253964 -175.303163 -12.851406 5.773676 1.473076 -1.847017 35.917481 -3.064514 -3.050573 -1.038017 -3.876530 0.593506 7.930802 4.850654 1.742800 0.000001 -49.890500 8.873548 -3.768734 6.000581 -0.045834 -1.678569 -2.859695 2.718634 1.670081 -2.702575 0.973379 5.014182 6.078266 0.537800 -0.000000 -75.046200
1.753070 17.299587 0.627965 178.596175 -72.741921 -175.498478 -12.817523 5.832945 1.513658 -1.726706 35.758975 -2.952886 -3.040762 -1.001985 -3.566379 0.534733 7.708954 4.596618 1.705400 -0.000000 -50.027699 8.912069 -3.741234 5.883032 -0.108126 -2.039639 -2.612382 2.668885 1.642453 -2.225470 0.925715 4.774276 5.756947 0.476500 -0.000001 -74.919200
1.743471 17.295587 0.644163 178.554037 -73.270416 -175.728041 -12.780435 5.890140 1.552419 -1.597731 35.562844 -2.817331 -3.025616 -0.965131 -3.281698 0.484420 7.506885 4.377098 1.672200 0.000000 -50.158000 8.953581 -3.714533 5.754519 -0.160649 -2.414194 -2.316149 2.615796 1.614064 -1.803268 0.880641 4.476587 5.506377 0.400900 -0.000000 -74.764200
1.734487 17.293006 0.660949 178.517606 -73.824022 -175.969111 -12.741169 5.946913 1.589172 -1.468579 35.344783 -2.668982 -3.007575 -0.927151 -3.012747 0.439585 7.317428 4.191479 1.643200 0.000000 -50.290800 8.997130 -3.689190 5.618994 -0.210402 -2.798970 -1.980395 2.560073 1.585890 -1.439625 0.839575 4.133239 5.326550 0.313100 0.000000 -74.586200
1.725735 17.291835 0.678065 178.473618 -74.384413 -176.202207 -12.701775 6.004424 1.622046 -1.344472 35.131535 -2.516847 -2.990294 -0.888648 -2.761066 0.398933 7.125003 4.044364 1.614800 0.000000 -50.431300 9.040905 -3.666183 5.482924 -0.261812 -3.178077 -1.614862 2.502535 1.559302 -1.140709 0.802832 3.748690 5.216317 0.213400 0.000000 -74.386600
1.716975 17.291995 0.695361 178.422002 -74.931304 -176.422752 -12.664858 6.063219 1.647003 -1.223845 34.957530 -2.363555 -2.977663 -0.850522 -2.536823 0.362141 6.909054 3.944523 1.581700 0.000000 -50.582800 9.082716 -3.646197 5.353273 -0.314429 -3.525356 -1.227361 2.443816 1.535263 -0.908580 0.769651 3.320265 5.171171 0.100399 0.000000 -74.164100
